<svg xmlns="http://www.w3.org/2000/svg" version="1.1" xmlns:xlink="http://www.w3.org/1999/xlink" width="1000" height="1000"><metadata><rdf:RDF xmlns:rdf="http://www.w3.org/1999/02/22-rdf-syntax-ns#" xmlns:dc="http://purl.org/dc/elements/1.1/"><rdf:Description><dc:creator>RealFaviconGenerator</dc:creator><dc:source>https://realfavicongenerator.net</dc:source></rdf:Description></rdf:RDF></metadata><style>
    #light-icon {
      display: inline;
    }
    #dark-icon {
      display: none;
    }

    @media (prefers-color-scheme: dark) {
      #light-icon {
        display: none;
      }
      #dark-icon {
        display: inline;
      }
    }
  </style><g id="light-icon"><svg xmlns="http://www.w3.org/2000/svg" version="1.1" xmlns:xlink="http://www.w3.org/1999/xlink" width="1000" height="1000"><g><g transform="matrix(1.3888888888888888,0,0,1.3888888888888888,0,0)"><svg xmlns="http://www.w3.org/2000/svg" id="Layer_2" data-name="Layer 2" viewBox="0 0 720 720" width="720" height="720"><defs>
    <style>
      .cls-1 {
        fill: #430098;
      }

      .cls-2 {
        fill: #09dca0;
      }

      .cls-3 {
        fill: #102590;
      }

      .cls-4 {
        fill: #36d1ff;
      }
    </style>
  </defs><g id="LOGO">
    <g>
      <path class="cls-2" d="M339.34,0V240.15h-99.18v99.18H0C10.32,156.63,156.63,10.33,339.34,0Z"></path>
      <path class="cls-1" d="M240.15,479.85h99.18v240.15C156.63,709.67,10.32,563.34,0,380.66H240.15v99.18Z"></path>
      <path class="cls-3" d="M479.85,380.66h240.15c-10.32,182.67-156.66,329.01-339.34,339.34v-240.15h99.18v-99.18Z"></path>
      <path class="cls-4" d="M479.85,240.15h-99.18V0c182.67,10.33,329.01,156.63,339.34,339.34h-240.15v-99.18Z"></path>
    </g>
  </g></svg></g></g></svg></g><g id="dark-icon"><svg xmlns="http://www.w3.org/2000/svg" version="1.1" xmlns:xlink="http://www.w3.org/1999/xlink" width="1000" height="1000"><g><g transform="matrix(1.3888888888888888,0,0,1.3888888888888888,0,0)"><svg xmlns="http://www.w3.org/2000/svg" id="Layer_2" data-name="Layer 2" viewBox="0 0 720 720" width="720" height="720"><defs>
    <style>
      .cls-1 {
        fill: #fff;
      }
    </style>
  </defs><g id="LOGO">
    <g>
      <path class="cls-1" d="M0,339.34H240.15v-99.18h99.18V0C156.63,10.33,10.32,156.63,0,339.34Z"></path>
      <path class="cls-1" d="M240.15,380.66H0c10.32,182.67,156.63,329.01,339.34,339.34v-240.15h-99.18v-99.18Z"></path>
      <path class="cls-1" d="M479.85,479.85h-99.18v240.15c182.67-10.33,329.01-156.66,339.34-339.34h-240.15v99.18Z"></path>
      <path class="cls-1" d="M479.85,339.34h240.15C709.67,156.63,563.34,10.33,380.66,0V240.15h99.18v99.18Z"></path>
    </g>
  </g></svg></g></g></svg></g></svg>