<?xml version="1.0" encoding="UTF-8"?>
<svg id="Layer_2" data-name="Layer 2" xmlns="http://www.w3.org/2000/svg" viewBox="0 0 830 243.94">
  <defs>
    <style>
      .cls-1 {
        fill: #430098;
      }

      .cls-2 {
        fill: #09dca0;
      }

      .cls-3 {
        fill: #102590;
      }

      .cls-4 {
        fill: #36d1ff;
      }

      .cls-5 {
        fill: #212121;
      }
    </style>
  </defs>
  <g id="LOGO">
    <g>
      <path class="cls-5" d="M92.16,142.96v19.88H0v-15.81L57.83,77.31H1.2v-19.88H89.9v15.81l-57.67,69.72h59.93Z"/>
      <path class="cls-5" d="M99.35,57.43c0-7.38,5.87-13.1,14.61-13.1s14.61,5.42,14.61,12.65c0,7.83-5.87,13.55-14.61,13.55s-14.61-5.72-14.61-13.1Zm2.86,24.4h23.49v81.02h-23.49V81.82Z"/>
      <path class="cls-5" d="M196.42,158.92c-4.82,3.46-11.9,5.12-19.12,5.12-19.12,0-30.27-9.79-30.27-29.06v-33.28h-12.5v-18.07h12.5v-19.73h23.49v19.73h20.18v18.07h-20.18v32.98c0,6.93,3.76,10.69,10.09,10.69,3.46,0,6.93-1.05,9.49-3.01l6.32,16.56Z"/>
      <path class="cls-5" d="M228.34,92.51v-10.69h-22.44v33.14h24.9c2.91-8.84,10.25-12.97,20.13-12.97,1.81,0,3.31,.16,5.28,.3v-21.68c-12.5,0-22.14,4.06-27.86,11.89Zm-22.44,36.46v33.87h23.5v-33.87h-23.5Z"/>
      <path class="cls-5" d="M529.94,128.97v33.87h23.49v-33.87h-23.49Zm49.25-48.35c-10.99,0-20.48,3.76-26.81,10.69v-9.49h-22.43v33.14h24.38c2.4-9.53,9.44-14.02,18.54-14.02,10.4,0,16.42,6.03,16.42,19.12v42.77h23.49v-46.37c0-24.7-14.45-35.84-33.57-35.84Z"/>
      <path class="cls-5" d="M626.97,57.43c0-7.38,5.87-13.1,14.61-13.1s14.61,5.42,14.61,12.65c0,7.83-5.87,13.55-14.61,13.55s-14.61-5.72-14.61-13.1Zm2.86,24.4h23.49v81.02h-23.49V81.82Z"/>
      <path class="cls-5" d="M665.05,122.33c0-24.4,18.82-41.71,45.18-41.71,17.02,0,30.42,7.38,36.29,20.63l-18.22,9.79c-4.37-7.68-10.84-11.14-18.22-11.14-11.9,0-21.23,8.28-21.23,22.44s9.34,22.44,21.23,22.44c7.38,0,13.85-3.31,18.22-11.14l18.22,9.94c-5.87,12.95-19.28,20.48-36.29,20.48-26.35,0-45.18-17.32-45.18-41.71Z"/>
      <path class="cls-5" d="M830,116.61v46.23h-21.99v-10.09c-4.37,7.38-12.8,11.29-24.7,11.29-18.97,0-30.27-10.54-30.27-24.55s10.09-24.24,34.79-24.24h18.67c0-10.09-6.02-15.96-18.67-15.96-8.58,0-17.47,2.86-23.34,7.53l-8.43-16.41c8.88-6.32,21.99-9.79,34.94-9.79,24.7,0,39,11.44,39,35.99Zm-23.49,20.63v-8.28h-16.11c-10.99,0-14.46,4.07-14.46,9.49,0,5.87,4.97,9.79,13.25,9.79,7.83,0,14.61-3.61,17.32-10.99Z"/>
      <g>
        <path class="cls-2" d="M386.47,0V81.36h-33.6v33.6h-81.36C275,53.07,324.57,3.5,386.47,0Z"/>
        <path class="cls-1" d="M352.86,162.57h33.6v81.37c-61.9-3.5-111.47-53.08-114.97-114.97h81.36v33.6Z"/>
        <path class="cls-3" d="M434.07,128.97h81.36c-3.5,61.89-53.08,111.47-114.97,114.97v-81.37h33.6v-33.6Z"/>
        <path class="cls-4" d="M434.07,81.36h-33.6V0c61.89,3.5,111.47,53.07,114.97,114.97h-81.36v-33.6Z"/>
      </g>
    </g>
  </g>
</svg>